<svg width="166" height="30" viewBox="0 0 166 30" fill="none" xmlns="http://www.w3.org/2000/svg">
<path d="M0 23.4567H15.5027V18.4457H5.16758V2.47316H0V23.4567Z" fill="#FF9514"/>
<path d="M24.3263 7.32755C19.5032 7.32755 16.1208 10.9292 16.1208 15.627C16.1208 20.0116 18.8768 23.9264 24.2323 23.9264C27.9592 23.9264 31.1851 22.016 32.1872 18.4457H27.1449C26.6438 19.2286 25.3598 19.7297 24.1697 19.6358C22.3532 19.4792 21.3197 18.4143 21.0065 17.2242H32.2812C32.9076 11.5242 29.5565 7.32755 24.3263 7.32755ZM24.2949 11.5869C25.8296 11.5869 27.051 12.3072 27.4895 13.6226H21.0691C21.5076 12.3699 22.729 11.5869 24.2949 11.5869Z" fill="#FF9514"/>
<path d="M45.5848 9.70777H45.4595C44.5199 8.36106 42.7974 7.32755 40.6364 7.32755C36.3458 7.32755 33.4018 10.8666 33.4018 15.6896C33.4018 20.638 36.5337 23.9264 40.6364 23.9264C42.7974 23.9264 44.5199 22.8929 45.4595 21.5462H45.5848V23.4567H50.4079V7.79733H45.5848V9.70777ZM41.9518 19.3539C39.8848 19.3539 38.3189 17.8193 38.3189 15.627C38.3189 13.4347 39.8848 11.9001 41.9518 11.9001C44.0502 11.9001 45.5848 13.4973 45.5848 15.627C45.5848 17.6627 44.1128 19.3539 41.9518 19.3539Z" fill="#FF9514"/>
<path d="M57.3535 7.79733C54.3469 7.79733 51.998 9.7704 51.998 12.6204C51.998 14.7501 53.6579 16.3786 55.9755 16.8797L61.6755 18.1012C61.8947 18.1638 61.9573 18.3204 61.9573 18.4457C61.9573 18.6023 61.8321 18.7589 61.6128 18.7589H52.6557V23.4567H61.6441C64.6507 23.4567 67.0623 21.4523 67.0623 18.5709C67.0623 16.3473 65.465 14.6874 63.0535 14.2177L57.4474 13.1215C57.2909 13.0902 57.1656 12.9336 57.1656 12.8083C57.1656 12.6517 57.2909 12.4951 57.5101 12.4951H65.9348V7.79733H57.3535Z" fill="#FF9514"/>
<path d="M68.6544 0.907227V6.0748H73.5088V0.907227H68.6544ZM68.6544 7.79733V23.4567H73.5088V7.79733H68.6544Z" fill="#FF9514"/>
<path d="M85.5104 7.35887C83.7566 7.35887 82.0967 8.14183 81.0632 9.58249H80.9379V7.79733H76.2088V23.4567H81.0632V15.1885C81.0632 13.2468 82.5665 12.1506 84.0071 12.1506C85.2912 12.1506 86.6379 13.0275 86.6379 15.0319V23.4567H91.4923V14.3742C91.4923 9.80172 89.2373 7.35887 85.5104 7.35887Z" fill="#FF9514"/>
<path d="M105.133 9.70777H105.008C104.068 8.36106 102.346 7.32755 100.185 7.32755C95.894 7.32755 92.9501 10.8666 92.9501 15.6896C92.9501 20.638 96.0819 23.9264 100.185 23.9264C102.346 23.9264 104.068 22.8929 105.008 21.5462H105.133V23.8325C105.133 24.4588 104.663 24.8347 104.006 24.8347H95.0171V29.7204H105.196C108.202 29.7204 109.956 28.0918 109.956 25.1165V7.79733H105.133V9.70777ZM101.5 19.3539C99.433 19.3539 97.8671 17.8193 97.8671 15.627C97.8671 13.4347 99.433 11.9001 101.5 11.9001C103.598 11.9001 105.133 13.4973 105.133 15.627C105.133 17.6627 103.661 19.3539 101.5 19.3539Z" fill="#FF9514"/>
<path d="M128.326 14.7188C127.762 17.2556 125.695 18.8528 122.907 18.8528C119.243 18.8528 117.27 16.0655 117.27 12.9649C117.27 9.80176 119.274 7.13968 122.845 7.07704C125.695 7.0144 127.605 8.67429 128.2 10.9919H133.556C132.961 5.94957 128.827 2.00342 122.907 2.00342C116.268 2.00342 112.009 6.95177 112.009 13.0276C112.009 19.0408 116.268 23.9265 122.907 23.9265C128.983 23.9265 133.086 19.949 133.618 14.7188H128.326Z" fill="#111111"/>
<path d="M146.973 9.70781H146.847C145.908 8.3611 144.185 7.32759 142.024 7.32759C137.734 7.32759 134.79 10.8666 134.79 15.6897C134.79 20.638 137.922 23.9265 142.024 23.9265C144.185 23.9265 145.908 22.893 146.847 21.5463H146.973V23.4567H151.796V7.79737H146.973V9.70781ZM143.34 19.3539C141.273 19.3539 139.707 17.8193 139.707 15.627C139.707 13.4347 141.273 11.9001 143.34 11.9001C145.438 11.9001 146.973 13.4974 146.973 15.627C146.973 17.6627 145.501 19.3539 143.34 19.3539Z" fill="#111111"/>
<path d="M162.524 7.79737C160.926 7.79737 159.642 8.73693 159.204 10.1463H159.079V7.79737H154.475V23.4567H159.329V15.5331C159.329 13.8732 160.55 12.6518 162.21 12.6518H166V7.79737H162.524Z" fill="#111111"/>
</svg>
